<?xml version="1.0" standalone="no"?>
<!DOCTYPE svg PUBLIC "-//W3C//DTD SVG 20010904//EN"
 "http://www.w3.org/TR/2001/REC-SVG-20010904/DTD/svg10.dtd">
<svg version="1.0" xmlns="http://www.w3.org/2000/svg"
 width="700.000000pt" height="700.000000pt" viewBox="0 0 700.000000 700.000000"
 preserveAspectRatio="xMidYMid meet">
<metadata>
Created by potrace 1.11, written by Peter Selinger 2001-2013
</metadata>
<g transform="translate(0.000000,700.000000) scale(0.100000,-0.100000)"
fill="#000000" stroke="none">
<path d="M4480 5494 c-30 -7 -80 -24 -110 -37 -146 -65 -348 -122 -530 -152
-242 -39 -325 -42 -1065 -35 -143 2 -285 -1 -315 -5 -30 -4 -64 -8 -75 -10
-113 -15 -165 -31 -276 -84 -217 -106 -400 -448 -553 -1041 -63 -243 -156
-746 -165 -890 -1 -20 -13 -30 -59 -52 -289 -138 -754 -572 -1014 -948 -158
-228 -222 -406 -167 -461 31 -31 116 -22 166 18 422 338 1067 626 2108 942
168 51 601 170 675 186 8 2 78 19 155 38 77 19 183 44 235 56 52 12 111 26
131 31 20 6 92 22 160 36 68 14 142 30 164 35 68 14 84 18 239 48 185 37 475
90 576 106 19 3 46 7 60 10 14 2 41 7 60 9 19 3 46 8 60 11 14 3 45 8 70 11
25 3 52 8 61 9 9 2 40 6 70 10 30 3 61 8 69 10 13 4 173 24 315 40 28 3 57 8
65 10 8 2 56 7 105 11 50 3 97 8 105 9 8 2 53 6 100 10 47 4 101 9 120 10 164
17 612 24 718 13 51 -6 72 15 72 71 0 28 -9 43 -49 82 -104 100 -383 208
-1001 386 l-164 48 -2 40 c-7 183 -163 580 -341 867 -119 193 -278 376 -396
457 -130 89 -262 122 -377 95z"/>
</g>
</svg>
